<svg id="Layer_1" data-name="Layer 1" xmlns="http://www.w3.org/2000/svg" viewBox="0 0 130.49 178.35"><defs><style>.cls-1{fill:#fff;}</style></defs><title>icon_3</title><path class="cls-1" d="M65.24,0C29.2,0,0,10.55,0,23.56v34.5c0,13,29.21,23.57,65.24,23.57s65.24-10.56,65.24-23.57V23.56C130.5,10.55,101.29,0,65.24,0Zm0,42.39C36.44,42.39,13.1,34,13.1,23.56S36.46,4.73,65.24,4.73s52.13,8.43,52.13,18.83S94.06,42.39,65.24,42.39Z"/><path class="cls-1" d="M65.25,91.77c-34.45,0-62.6-9.66-65-21.88A9.66,9.66,0,0,0,0,71.58v34.51c0,13,29.21,23.58,65.24,23.58s65.24-10.56,65.24-23.58V71.58a8.12,8.12,0,0,0-.2-1.69C127.87,82.13,99.7,91.77,65.25,91.77Z"/><path class="cls-1" d="M65.25,140.49c-34.45,0-62.6-9.66-65-21.88A9.42,9.42,0,0,0,0,120.29v34.49c0,13,29.21,23.57,65.24,23.57s65.24-10.54,65.24-23.57V120.29a7.87,7.87,0,0,0-.2-1.68C127.87,130.83,99.7,140.49,65.25,140.49Z"/></svg>