<svg id="Layer_1" data-name="Layer 1" xmlns="http://www.w3.org/2000/svg" viewBox="0 0 193.1 171"><defs><style>.cls-1{fill:#fff;}</style></defs><title>icon_12</title><path class="cls-1" d="M25.54,0H172.13V109.94H25.54V0Zm12.2,12.21V97.72H159.91V12.21Z"/><path class="cls-1" d="M0,171H193.1l-14.69-28.14q-5.91-11.33-10.81-20.72H25.47c-3.27,6.28-6.86,13.16-10.82,20.72C10.3,151.26,5.44,160.59,0,171Z"/><path class="cls-1" d="M82,81.72H71.35a.82.82,0,0,1-.82-.82V66.16a.82.82,0,0,1,.82-.82H82a.82.82,0,0,1,.82.82V80.9A.82.82,0,0,1,82,81.72Zm19.66-.82V54.69a.83.83,0,0,0-.81-.83H90.19a.84.84,0,0,0-.82.83V80.9a.83.83,0,0,0,.82.82h10.66A.82.82,0,0,0,101.66,80.9Zm20.72-38.09-8.13-14.09c-.4-.68-1-.68-1.42,0l-8.14,14.09c-.39.67-.07,1.23.71,1.23h2.81V80.9a.82.82,0,0,0,.82.82h9a.83.83,0,0,0,.82-.82V44h2.81C122.46,44,122.77,43.48,122.38,42.81Z"/></svg>