<svg id="Layer_1" data-name="Layer 1" xmlns="http://www.w3.org/2000/svg" viewBox="0 0 166.14 165.72"><defs><style>.cls-1{fill:#fff;}</style></defs><title>icon_1</title><path class="cls-1" d="M4.15.18,50,4.54s6.1-.18,2.67,3.22L41,19.46s2,2,5.11,5.1L77.49,56s2.25,1.32-.45,4S62.49,74.51,60.57,76.45s-3.36.39-3.36.39C50.86,70.47,34.27,53.9,25.74,45.36c-2.76-2.79-4.57-4.58-4.57-4.58s-6.63,6.64-10.81,10.79-4.13-2.1-4.13-2.1S.44,8.38.44,3.43C.44-.11,4.15.18,4.15.18Z"/><path class="cls-1" d="M162.43,165.61l-45.84-4.35s-6.1.19-2.7-3.22,11.69-11.72,11.69-11.72-2-2-5.09-5.06c-8.83-8.85-24.9-24.91-31.41-31.46,0,0-2.26-1.29.43-4S104.06,91.26,106,89.35s3.35-.4,3.35-.4l31.5,31.49,4.57,4.59s6.67-6.66,10.81-10.83,4.13,2.1,4.13,2.1,5.79,41.12,5.79,46C166.14,165.89,162.43,165.61,162.43,165.61Z"/><path class="cls-1" d="M0,162l4.32-45.87S4.15,110,7.6,113.44s11.68,11.72,11.68,11.72l5.09-5.11c8.8-8.83,24.89-24.88,31.42-31.44,0,0,1.33-2.21,4,.48s14.55,14.54,16.45,16.46.4,3.35.4,3.35c-6.37,6.35-23,23-31.48,31.52L40.58,145l10.79,10.77c4.18,4.2-2.06,4.16-2.06,4.16s-41.1,5.81-46,5.81C-.31,165.72,0,162,0,162Z"/><path class="cls-1" d="M165.42,3.69l-4.28,45.89s.15,6.1-3.26,2.66-11.72-11.68-11.72-11.68l-5.08,5.09c-8.82,8.82-24.89,24.87-31.43,31.42,0,0-1.3,2.23-4-.46S91.11,62.08,89.18,60.16s-.42-3.37-.42-3.37c6.39-6.37,23-22.94,31.52-31.51l4.57-4.56L114,9.91c-4.16-4.16,2.1-4.13,2.1-4.13S157.24,0,162.17,0C165.74,0,165.42,3.69,165.42,3.69Z"/></svg>