<svg id="Layer_1" data-name="Layer 1" xmlns="http://www.w3.org/2000/svg" viewBox="0 0 180.67 159.17"><defs><style>.cls-1{fill:#fff;}</style></defs><title>icon_9</title><path class="cls-1" d="M131.4,144.75c0,3.43-3.93,6.21-8.76,6.21H8.76C3.91,151,0,148.18,0,144.75V64.09c0-3.43,3.91-6.2,8.76-6.2H122.64c4.83,0,8.76,2.77,8.76,6.2v80.66Z"/><path class="cls-1" d="M32.85,11A21.9,21.9,0,1,1,11,32.86,21.89,21.89,0,0,1,32.85,11Z"/><path class="cls-1" d="M93.07,0A27.38,27.38,0,1,1,65.71,27.37,27.37,27.37,0,0,1,93.07,0Z"/><path class="cls-1" d="M180.67,153.7s-.73,5.47-5.83,5.47-38-30.64-38-34.67V84.35c0-4,32.12-34.67,38-34.67a5.48,5.48,0,0,1,5.83,5.47Z"/></svg>