<svg id="Layer_1" data-name="Layer 1" xmlns="http://www.w3.org/2000/svg" viewBox="0 0 165.66 165.65"><defs><style>.cls-1{fill:#f1f1f1;}</style></defs><title>icon_11</title><path class="cls-1" d="M69.39,0c38.33,0,69.4,13.83,69.4,30.87s-31.07,30.89-69.4,30.89S0,48,0,30.87,31.07,0,69.39,0Z"/><path class="cls-1" d="M85.47,144.32a12.84,12.84,0,0,1-9.42-10c-2.19.08-4.41.13-6.66.13C31.06,134.41,0,120.59,0,103.52v23.62C0,144.21,31.06,158,69.39,158a156,156,0,0,0,16-.84A12.75,12.75,0,0,1,85.47,144.32Z"/><path class="cls-1" d="M69.39,125.94c2.18,0,4.3,0,6.42-.13v-3.55a12.82,12.82,0,0,1,9.72-12.43,12.87,12.87,0,0,1-1.68-8.16c-4.67.42-9.49.67-14.46.67C31.06,102.34,0,88.53,0,71.45v23.6C0,112.13,31.06,125.94,69.39,125.94Z"/><path class="cls-1" d="M69.39,93.85a152.16,152.16,0,0,0,19.73-1.27l5.19-5.19a12.82,12.82,0,0,1,15.55-2,12.83,12.83,0,0,1,12.41-9.59h9.63c.16,0,.34,0,.51,0,4.05-3.92,6.37-8.27,6.37-12.88V39.35c0,17.06-31.06,30.88-69.39,30.88S0,56.41,0,39.35V63C0,80,31.06,93.85,69.39,93.85Z"/><path class="cls-1" d="M165.66,131.89v-9.63l-11.46-1.87a28,28,0,0,0-3.14-7.62l6.67-9.51-6.81-6.8-9.39,6.75a27.64,27.64,0,0,0-7.64-3.16l-2-11.42h-9.63L120.41,100a27.9,27.9,0,0,0-7.66,3.14l-9.38-6.68-6.8,6.8,6.59,9.42a27.44,27.44,0,0,0-3.2,7.69l-11.3,1.89v9.63l11.3,2a27.18,27.18,0,0,0,3.19,7.68l-6.67,9.33,6.8,6.83,9.43-6.63a27.76,27.76,0,0,0,7.66,3.18l1.9,11.36h9.63l2-11.39a27.5,27.5,0,0,0,7.62-3.21l9.51,6.69,6.8-6.83-6.78-9.42a27.71,27.71,0,0,0,3.14-7.59Zm-38.5,8.69a13.43,13.43,0,1,1,13.43-13.44A13.44,13.44,0,0,1,127.16,140.58Z"/></svg>