<svg id="Layer_1" data-name="Layer 1" xmlns="http://www.w3.org/2000/svg" viewBox="0 0 175.44 123.53"><defs><style>.cls-1{fill:#fff;}</style></defs><title>icon_2</title><path class="cls-1" d="M167.66,0H7.79A7.78,7.78,0,0,0,0,7.78v108a7.78,7.78,0,0,0,7.79,7.78H167.66a7.78,7.78,0,0,0,7.78-7.78V7.78A7.78,7.78,0,0,0,167.66,0ZM63.59,105H11V99.92H63.58V105Zm9.73-9.73H11V83.18H73.32ZM154.68,103a3.12,3.12,0,0,1-3.11,3.12H90.84A3.12,3.12,0,0,1,87.73,103V71.89a3.12,3.12,0,0,1,3.11-3.12h60.73a3.12,3.12,0,0,1,3.11,3.12Zm5.19-50.6a3.11,3.11,0,0,1-3.11,3.11h-27a3.12,3.12,0,0,1-3.12-3.11V21.8a3.12,3.12,0,0,1,3.12-3.12h27a3.12,3.12,0,0,1,3.11,3.12V52.43ZM147.42,77.08v4.15a3.12,3.12,0,0,1-3.12,3.12H98.63a3.12,3.12,0,0,1-3.12-3.12V77.08A3.12,3.12,0,0,1,98.63,74H144.3A3.12,3.12,0,0,1,147.42,77.08Zm0,16.87V98.1a3.12,3.12,0,0,1-3.12,3.12H98.63a3.12,3.12,0,0,1-3.12-3.12V94a3.11,3.11,0,0,1,3.12-3.11H144.3A3.12,3.12,0,0,1,147.42,94Z"/></svg>