<svg id="Layer_1" data-name="Layer 1" xmlns="http://www.w3.org/2000/svg" viewBox="0 0 175.17 173.72"><defs><style>.cls-1{fill:#fff;}</style></defs><title>icon_8</title><path class="cls-1" d="M43,163.71c14.16,6.64,31.41,10,51.27,10,20.33,0,37.82-4,52-11.86a66.65,66.65,0,0,0,27.9-29l1-2H153.28l-.42.54c-6.05,7.69-13.94,13.36-24.07,17.33s-22.16,5.8-36,5.8c-14.35,0-27.34-2.33-38.62-6.91a53.69,53.69,0,0,1-25.94-21.91A63.19,63.19,0,0,1,19,92.34a84.09,84.09,0,0,1,8.35-36.47A60.73,60.73,0,0,1,52,28.87c10.84-6.44,24.35-9.7,40.14-9.7,18.38,0,32.92,4.8,43.24,14.27A47,47,0,0,1,150.74,69,51.49,51.49,0,0,1,145.24,92,47.52,47.52,0,0,1,131,109.58c-4.18,3.23-7.61,4.87-10.2,4.87a1.69,1.69,0,0,1-1.32-.63l-.07-.08c-.27-.28-.6-.8-.6-2.32A53.2,53.2,0,0,1,120,103.9l13.81-65.46H107.49l-1.8,7.84C100.42,39.59,92.81,36.19,83,36.19c-15.19,0-27.83,7.28-37.59,21.64a67.89,67.89,0,0,0-12,38.94c0,11.48,3.4,20.91,10.12,28.05s15.35,10.6,25.51,10.6a34.79,34.79,0,0,0,23.48-9,13.71,13.71,0,0,0,4.89,6.2c2.7,1.9,6.6,2.82,11.93,2.82,18.58,0,34.07-8,46-23.66A67.77,67.77,0,0,0,169.7,69.93a71.52,71.52,0,0,0-9.39-35.78c-6.36-11-15.26-19.29-27.24-25.31C121.26,3,107.65,0,92.66,0,74.86,0,58.84,3.71,45.05,11,31.09,18.21,20,29.26,12,43.84A96.69,96.69,0,0,0,0,91.08,89.69,89.69,0,0,0,10.54,133.9C17.67,147.05,28.58,157.08,43,163.71ZM96.7,93.38c-2.17,6.72-4.81,11.88-7.81,15.33A24.1,24.1,0,0,1,82.54,114a17.6,17.6,0,0,1-8.77,2.3,13.13,13.13,0,0,1-10.29-4.84c-2.81-3.32-4.18-8.43-4.18-15.63a67.56,67.56,0,0,1,3.21-19c2.16-7.07,5.22-12.37,9.37-16.19S80.28,55,85,55A13.44,13.44,0,0,1,95.73,60c2.87,3.31,4.33,8.17,4.33,14.47A61.29,61.29,0,0,1,96.7,93.38Z"/></svg>