<svg id="Layer_1" data-name="Layer 1" xmlns="http://www.w3.org/2000/svg" viewBox="0 0 175.88 175.89"><defs><style>.cls-1{fill:#fff;}</style></defs><title>icon_5</title><path class="cls-1" d="M87.94,0a87.95,87.95,0,1,0,87.94,87.94A88,88,0,0,0,87.94,0ZM52.33,110.83a1.73,1.73,0,0,1-1.49,2.59H23a5.45,5.45,0,0,1-5.21-3.85,73.35,73.35,0,0,1,2.1-49.15,1.72,1.72,0,0,1,3.08-.22Zm71.23-45.78A1.71,1.71,0,0,1,125,62.47h27.88a5.43,5.43,0,0,1,5.2,3.85,73.33,73.33,0,0,1-2.1,49.14,1.71,1.71,0,0,1-3.07.22Zm22.38-22.11a1.73,1.73,0,0,1-1.36,2.78H85.64a1.72,1.72,0,0,1-1.5-2.57L98,18.88a5.45,5.45,0,0,1,5.93-2.62A73.52,73.52,0,0,1,145.94,42.94ZM77.58,15.23a1.74,1.74,0,0,1,1.66.75,1.71,1.71,0,0,1,.07,1.81l-29.05,51a1.76,1.76,0,0,1-1.48.87,1.74,1.74,0,0,1-1.5-.86l-14-24.15A5.45,5.45,0,0,1,34,38.19,73.35,73.35,0,0,1,77.58,15.23ZM30,133a1.7,1.7,0,0,1-.19-1.81,1.74,1.74,0,0,1,1.54-1H90.24a1.72,1.72,0,0,1,1.5,2.57L77.91,157A5.43,5.43,0,0,1,72,159.62,73.53,73.53,0,0,1,30,133Zm68.36,27.7a1.72,1.72,0,0,1-1.74-2.55l29.05-51a1.73,1.73,0,0,1,1.49-.88,1.75,1.75,0,0,1,1.5.85l14,24.15a5.43,5.43,0,0,1-.71,6.43A73.41,73.41,0,0,1,98.31,160.65Z"/></svg>