<svg id="Layer_1" data-name="Layer 1" xmlns="http://www.w3.org/2000/svg" viewBox="0 0 181.2 137.84"><defs><style>.cls-1{fill:#fff;}</style></defs><title>icon_4</title><path class="cls-1" d="M178,105.71H60.74a3.17,3.17,0,0,1-3.17-3.16V29a3.17,3.17,0,0,1,3.17-3.17H178A3.18,3.18,0,0,1,181.2,29v73.53A3.18,3.18,0,0,1,178,105.71Zm-32.51,23.21H133.65v-14.3H105.13v14.3H93.24a4.46,4.46,0,0,0,0,8.92h52.28a4.46,4.46,0,0,0,0-8.92Zm-74.37-112H60.74a12,12,0,0,0-1.9.16,4.24,4.24,0,0,0-1.14-.16H13.46a4.46,4.46,0,1,0,0,8.91H49.09A12.25,12.25,0,0,0,48.65,29v8.3H13.46a4.46,4.46,0,1,0,0,8.91H48.65V57.69H13.46a4.46,4.46,0,1,0,0,8.91H48.65v36a12.11,12.11,0,0,0,12.09,12.07H71.15v18.76a4.45,4.45,0,0,1-4.46,4.44H4.45A4.45,4.45,0,0,1,0,133.38V4.46A4.46,4.46,0,0,1,4.45,0H66.69a4.46,4.46,0,0,1,4.46,4.46Zm-42.45,88a6.87,6.87,0,1,0,6.87-6.86A6.88,6.88,0,0,0,28.7,104.91Z"/></svg>