<svg id="Layer_1" data-name="Layer 1" xmlns="http://www.w3.org/2000/svg" viewBox="0 0 183.53 162.41"><defs><style>.cls-1{fill:#fff;}</style></defs><title>icon_7</title><path class="cls-1" d="M76.24,112.91a5,5,0,0,1,5,1.5l6.08,6.88a4.61,4.61,0,0,0,5.87.85l5.1-3.17,5.1-3.17a4.61,4.61,0,0,0,1.8-5.66l-3.41-8.26a5.07,5.07,0,0,1,.83-5.15,51.18,51.18,0,0,0,4.67-6.48,5,5,0,0,1,4.55-2.46l9.18.54a4.69,4.69,0,0,0,4.79-3.57l1.32-5.87L128.41,73a4.65,4.65,0,0,0-2.74-5.33l-8.23-3.41a5,5,0,0,1-3-4.21,52,52,0,0,0-1.27-7.91,5,5,0,0,1,1.49-4.92l6.87-6.08a4.63,4.63,0,0,0,.86-5.87l-3.18-5.1L116,25.09a4.65,4.65,0,0,0-5.67-1.8l-8.21,3.49A5,5,0,0,1,96.92,26a51.58,51.58,0,0,0-6.48-4.67A5,5,0,0,1,88,16.74l.54-9.18A4.67,4.67,0,0,0,85,2.78L79.09,1.45,73.22.12a4.65,4.65,0,0,0-5.34,2.73l-3.41,8.24a5,5,0,0,1-4.26,3A45.82,45.82,0,0,0,52,15.45,4.94,4.94,0,0,1,47,14L41,7.19a4.61,4.61,0,0,0-5.86-.86L30.05,9.5,25,12.67a4.66,4.66,0,0,0-1.8,5.67l3.46,8.4a5,5,0,0,1-.84,5.09,47.75,47.75,0,0,0-4.69,6.57,4.91,4.91,0,0,1-4.58,2.43l-9-.53a4.74,4.74,0,0,0-4.8,3.46L1.34,49.63.12,55.42a4.56,4.56,0,0,0,2.76,5.3l8.35,3.45a4.9,4.9,0,0,1,3,4.21,48.77,48.77,0,0,0,1.34,8,4.94,4.94,0,0,1-1.51,4.94l-6.79,6a4.62,4.62,0,0,0-.86,5.87L9.61,98.3l3.18,5.11a4.62,4.62,0,0,0,5.66,1.79l8.4-3.45a5,5,0,0,1,5.1.84,47.65,47.65,0,0,0,6.56,4.69,4.92,4.92,0,0,1,2.43,4.58l-.57,9A4.67,4.67,0,0,0,44,125.59l5.86,1.33,5.87,1.33A4.64,4.64,0,0,0,61,125.51l3.46-8.35a5,5,0,0,1,4.2-3A48.76,48.76,0,0,0,76.24,112.91ZM38.35,58.57A26.54,26.54,0,1,1,58.72,90.09,26.53,26.53,0,0,1,38.35,58.57Z"/><path class="cls-1" d="M171,38.23l-3,2.08a2,2,0,0,1-2.11.09,21.62,21.62,0,0,0-3-1.31,2,2,0,0,1-1.36-1.63l-.58-3.73a1.91,1.91,0,0,0-1.83-1.61l-2.49,0-2.48,0a1.86,1.86,0,0,0-1.86,1.54l-.62,3.59a2,2,0,0,1-1.44,1.61A21.25,21.25,0,0,0,147.13,40a2.15,2.15,0,0,1-2.12-.17l-3-2.22a1.92,1.92,0,0,0-2.43.16l-1.78,1.71L136,41.18a1.91,1.91,0,0,0-.24,2.42l2.07,3a2.05,2.05,0,0,1,.11,2.16,18.51,18.51,0,0,0-1.36,3.13,2.08,2.08,0,0,1-1.65,1.4l-3.67.57a1.92,1.92,0,0,0-1.62,1.83l0,2.48,0,2.48a1.88,1.88,0,0,0,1.54,1.87l3.66.67a2,2,0,0,1,1.57,1.42,25.34,25.34,0,0,0,1.23,3.08,2,2,0,0,1-.17,2.12l-2.2,3a2,2,0,0,0,.11,2.43L137,77l1.71,1.79a1.91,1.91,0,0,0,2.42.24l3.05-2.14a2,2,0,0,1,2.11-.09,17.91,17.91,0,0,0,3.06,1.3,2,2,0,0,1,1.37,1.63l.57,3.67a1.93,1.93,0,0,0,1.83,1.62l2.48,0,2.49,0A1.88,1.88,0,0,0,160,83.57l.67-3.66a2,2,0,0,1,1.42-1.57,24.71,24.71,0,0,0,3.08-1.23,2.07,2.07,0,0,1,2.12.16l3,2.21a1.89,1.89,0,0,0,2.42-.17l1.79-1.71,1.78-1.71a1.9,1.9,0,0,0,.24-2.42l-2.1-3a2.18,2.18,0,0,1-.14-2.14,18.12,18.12,0,0,0,1.25-2.9A2,2,0,0,1,177.11,64l3.73-.57a1.94,1.94,0,0,0,1.62-1.84l0-2.48,0-2.49A1.85,1.85,0,0,0,181,54.8l-3.63-.65a2,2,0,0,1-1.6-1.44,21.78,21.78,0,0,0-1.2-3.06,2.15,2.15,0,0,1,.17-2.11l2.23-3a1.92,1.92,0,0,0-.17-2.43l-1.71-1.78-1.71-1.78A1.79,1.79,0,0,0,171,38.23Zm-7.2,12.68a10.89,10.89,0,1,1-15.39,0A10.9,10.9,0,0,1,163.77,50.91Z"/><path class="cls-1" d="M162.28,91.4,158.35,95a3,3,0,0,1-3,.58,27.76,27.76,0,0,0-4.59-1.29,2.9,2.9,0,0,1-2.27-2.06L146.87,87a2.72,2.72,0,0,0-3-1.91l-3.54.46-3.54.46a2.78,2.78,0,0,0-2.41,2.59l-.18,5.33a3.09,3.09,0,0,1-1.76,2.63,27.3,27.3,0,0,0-4.14,2.34,3.14,3.14,0,0,1-3.08.19l-4.85-2.58a2.75,2.75,0,0,0-3.48.72l-2.19,2.85-2.19,2.85a2.75,2.75,0,0,0,.14,3.55l3.57,3.9a3,3,0,0,1,.56,3.09,27.82,27.82,0,0,0-1.33,4.77,3,3,0,0,1-2,2.34l-5.17,1.55a2.72,2.72,0,0,0-1.91,3l.46,3.53.46,3.55a2.76,2.76,0,0,0,2.59,2.4l5.4.23a3,3,0,0,1,2.55,1.71,27.08,27.08,0,0,0,2.38,4.18,3,3,0,0,1,.19,3.07l-2.56,4.76a2.89,2.89,0,0,0,.66,3.48l2.85,2.2,2.85,2.19a2.77,2.77,0,0,0,3.55-.14l4-3.68a3,3,0,0,1,3-.6,29.32,29.32,0,0,0,4.65,1.28,3,3,0,0,1,2.3,2l1.56,5.17a2.7,2.7,0,0,0,3,1.91l3.54-.47,3.54-.45a2.76,2.76,0,0,0,2.4-2.59l.25-5.4a3,3,0,0,1,1.69-2.56,27.87,27.87,0,0,0,4.18-2.37,3,3,0,0,1,3.07-.19l4.76,2.56a2.73,2.73,0,0,0,3.47-.72l2.2-2.85,2.19-2.85a2.75,2.75,0,0,0-.14-3.55l-3.64-4a2.93,2.93,0,0,1-.57-3,27.75,27.75,0,0,0,1.19-4.4,3,3,0,0,1,2-2.31l5.22-1.57a2.72,2.72,0,0,0,1.92-3l-.46-3.54-.47-3.54a2.76,2.76,0,0,0-2.58-2.4l-5.31-.22a2.91,2.91,0,0,1-2.56-1.76,26.17,26.17,0,0,0-2.35-4.15,3.15,3.15,0,0,1-.19-3.07l2.58-4.85a2.75,2.75,0,0,0-.72-3.48L168.6,93.5l-2.86-2.2A2.54,2.54,0,0,0,162.28,91.4Zm-4.72,41.83a15.82,15.82,0,1,1-3.1-22.16A15.83,15.83,0,0,1,157.56,133.23Z"/></svg>