<svg id="Layer_1" data-name="Layer 1" xmlns="http://www.w3.org/2000/svg" viewBox="0 0 180.26 160.08"><defs><style>.cls-1{fill:#fff;}</style></defs><title>icon_10</title><rect class="cls-1" x="25.96" y="80.65" width="15.94" height="15.95"/><rect class="cls-1" x="25.96" y="105.86" width="15.94" height="15.93"/><rect class="cls-1" x="52.67" y="55.42" width="15.94" height="15.95"/><rect class="cls-1" x="52.67" y="80.65" width="15.94" height="15.95"/><rect class="cls-1" x="52.67" y="105.86" width="15.94" height="15.93"/><path class="cls-1" d="M148.37,57.72V11.21A11.25,11.25,0,0,0,137.15,0H11.21A11.24,11.24,0,0,0,0,11.21V137.15a11.24,11.24,0,0,0,11.21,11.22H93.42a53.45,53.45,0,1,0,55-90.65ZM48.6,11H99.72V24.23H48.6ZM13.78,36.85h120.8V53.77A52.21,52.21,0,0,0,95.3,63.42v-8H79.38V71.35h7.25a53.25,53.25,0,0,0-6.27,61.74H13.78Zm108.08,26.2a4.91,4.91,0,1,1,4.9,4.9A4.9,4.9,0,0,1,121.86,63.05ZM88.11,106.62a4.91,4.91,0,1,1-4.92-4.9A4.91,4.91,0,0,1,88.11,106.62Zm38.65,48.46a4.91,4.91,0,1,1,4.91-4.88A4.89,4.89,0,0,1,126.76,155.08ZM156.45,84.5,135.92,105a8.46,8.46,0,0,1,.39,1.89,9.59,9.59,0,0,1-19.16.49L95.35,90.44a4,4,0,1,1,4.93-6.32l20,15.54A9.52,9.52,0,0,1,126.77,97a9.36,9.36,0,0,1,4.54,1.29l19.45-19.47c1.82-1.81,4.57-2,6.11-.42S158.23,82.68,156.45,84.5Zm13.87,27a4.91,4.91,0,1,1,4.91-4.93A4.92,4.92,0,0,1,170.32,111.53Z"/></svg>